<?xml version="1.0" encoding="UTF-8" standalone="no"?>
<!DOCTYPE svg PUBLIC "-//W3C//DTD SVG 1.1//EN" "http://www.w3.org/Graphics/SVG/1.1/DTD/svg11.dtd">
<svg width="100%" height="100%" viewBox="0 0 128 128" version="1.1" xmlns="http://www.w3.org/2000/svg" xmlns:xlink="http://www.w3.org/1999/xlink" xml:space="preserve" xmlns:serif="http://www.serif.com/" style="fill-rule:evenodd;clip-rule:evenodd;stroke-linecap:round;stroke-linejoin:round;stroke-miterlimit:1.5;">
    <g transform="matrix(0.664659,0.747147,-0.747147,0.664659,71.4886,-22.8248)">
        <path d="M59.866,14.305C59.866,14.305 71.276,27.7 70.284,49.695C69.259,72.415 65.323,81.116 65.323,81.116L52.589,81.116C52.589,81.116 49.536,68.196 48.786,49.695C47.943,28.907 60.031,14.305 59.866,14.305Z" style="fill:url(#_Linear1);stroke:black;stroke-width:1px;"/>
    </g>
    <g transform="matrix(0.664659,0.747147,-0.747147,0.664659,74.4284,-19.5201)">
        <path d="M44.099,85.458C43.528,87.163 41.917,88.393 40.021,88.393C37.648,88.393 35.721,86.466 35.721,84.093C35.721,81.72 37.648,79.793 40.021,79.793C41.573,79.793 42.934,80.618 43.69,81.852C43.858,81.616 44.067,81.371 44.32,81.116L64.103,81.116C64.354,81.356 64.573,81.586 64.761,81.808C65.522,80.598 66.869,79.793 68.403,79.793C70.776,79.793 72.703,81.72 72.703,84.093C72.703,86.466 70.776,88.393 68.403,88.393C66.766,88.393 65.342,87.476 64.616,86.129C64.025,86.814 63.22,87.545 62.284,88.393L46.636,88.393C45.491,87.242 44.799,86.31 44.099,85.458Z" style="fill:url(#_Linear2);stroke:black;stroke-width:1px;"/>
    </g>
    <g transform="matrix(0.664659,0.747147,-0.747147,0.664659,65.2279,-22.1493)">
        <path d="M66.756,97.868C67.388,98.651 67.767,99.647 67.767,100.731C67.767,103.252 65.721,105.298 63.201,105.298C60.681,105.298 58.635,103.252 58.635,100.731C58.635,99.647 59.013,98.651 59.645,97.868L59.645,83.266L66.756,83.266L66.756,97.868Z" style="fill:url(#_Linear3);stroke:black;stroke-width:1px;"/>
    </g>
    <defs>
        <linearGradient id="_Linear1" x1="0" y1="0" x2="1" y2="0" gradientUnits="userSpaceOnUse" gradientTransform="matrix(21.602,0,0,66.8114,48.7434,47.7106)"><stop offset="0" style="stop-color:rgb(146,135,161);stop-opacity:1"/><stop offset="0.32" style="stop-color:rgb(139,128,154);stop-opacity:1"/><stop offset="0.5" style="stop-color:rgb(102,92,117);stop-opacity:1"/><stop offset="0.68" style="stop-color:rgb(114,102,130);stop-opacity:1"/><stop offset="1" style="stop-color:rgb(116,104,133);stop-opacity:1"/></linearGradient>
        <linearGradient id="_Linear2" x1="0" y1="0" x2="1" y2="0" gradientUnits="userSpaceOnUse" gradientTransform="matrix(36.9818,0,0,36.9818,35.7209,84.093)"><stop offset="0" style="stop-color:rgb(254,237,92);stop-opacity:1"/><stop offset="0.32" style="stop-color:rgb(254,236,79);stop-opacity:1"/><stop offset="0.42" style="stop-color:rgb(254,232,47);stop-opacity:1"/><stop offset="0.5" style="stop-color:rgb(254,228,11);stop-opacity:1"/><stop offset="0.59" style="stop-color:rgb(239,214,7);stop-opacity:1"/><stop offset="0.68" style="stop-color:rgb(225,201,3);stop-opacity:1"/><stop offset="1" style="stop-color:rgb(219,196,1);stop-opacity:1"/></linearGradient>
        <linearGradient id="_Linear3" x1="0" y1="0" x2="1" y2="0" gradientUnits="userSpaceOnUse" gradientTransform="matrix(9.13219,0,0,39.2727,58.6348,100.731)"><stop offset="0" style="stop-color:rgb(181,101,54);stop-opacity:1"/><stop offset="0.32" style="stop-color:rgb(174,97,52);stop-opacity:1"/><stop offset="0.5" style="stop-color:rgb(135,76,41);stop-opacity:1"/><stop offset="0.59" style="stop-color:rgb(120,68,36);stop-opacity:1"/><stop offset="0.68" style="stop-color:rgb(106,60,32);stop-opacity:1"/><stop offset="1" style="stop-color:rgb(101,57,30);stop-opacity:1"/></linearGradient>
    </defs>
</svg>
